<?xml version="1.0" ?><!DOCTYPE svg  PUBLIC '-//W3C//DTD SVG 1.1//EN'  'http://www.w3.org/Graphics/SVG/1.1/DTD/svg11.dtd'><svg enable-background="new 0 0 128 128" id="Layer_1" version="1.1" viewBox="0 0 128 128" xml:space="preserve" xmlns="http://www.w3.org/2000/svg" xmlns:xlink="http://www.w3.org/1999/xlink"><g><g><g><ellipse cx="64" cy="62.2" fill="#5EBE89" rx="41.5" ry="54"/></g><g><path d="M64,118.1c-24,0-43.5-25.1-43.5-56S40,6.2,64,6.2s43.6,25.1,43.6,56S88,118.1,64,118.1z M64,10.2     c-21.8,0-39.5,23.3-39.5,52s17.7,52,39.5,52c21.8,0,39.6-23.3,39.6-52S85.8,10.2,64,10.2z" fill="#171C1F"/></g></g><g><g><ellipse cx="64" cy="82.4" fill="#FFC76A" rx="26" ry="33.7"/></g><g><path d="M64,117.1c-14.9,0-27-15.6-27-34.7s12.1-34.7,27-34.7c14.9,0,27,15.6,27,34.7S78.9,117.1,64,117.1z      M64,49.6c-13.8,0-25,14.7-25,32.7s11.2,32.7,25,32.7s25-14.7,25-32.7S77.8,49.6,64,49.6z" fill="#171C1F"/></g></g><g><g><line fill="#FFFFFF" x1="25.1" x2="102.9" y1="120.8" y2="120.8"/></g><g><path d="M102.9,122.8H25.1c-1.1,0-2-0.9-2-2s0.9-2,2-2h77.8c1.1,0,2,0.9,2,2S104,122.8,102.9,122.8z" fill="#171C1F"/></g></g><g><g><path d="M64,82.8L64,82.8c-10.2-10.2-10.2-26.8,0-37l0,0l0,0C74.2,56,74.2,72.6,64,82.8L64,82.8z" fill="#F27475"/></g><g><path d="M64,83.8c-0.3,0-0.5-0.1-0.7-0.3c-5.1-5.1-8-12-8-19.2c0-7.3,2.8-14.1,8-19.2c0.4-0.4,1-0.4,1.4,0     c5.1,5.1,8,12,8,19.2c0,7.3-2.8,14.1-8,19.2C64.5,83.7,64.3,83.8,64,83.8z M64,47.2c-4.3,4.7-6.7,10.7-6.7,17.1     c0,6.4,2.4,12.4,6.7,17.1C72.9,71.7,72.9,56.8,64,47.2z" fill="#171C1F"/></g></g><g><g><g><path d="M79.1,103.2L79.1,103.2c-4.1,0-7.4,3.3-7.4,7.4v7c0,4.1,3.3,7.4,7.4,7.4h0c4.1,0,7.4-3.3,7.4-7.4v-7      C86.5,106.5,83.2,103.2,79.1,103.2z" fill="#485762"/></g><g><path d="M79.1,127c-5.2,0-9.4-4.2-9.4-9.4v-7c0-5.2,4.2-9.4,9.4-9.4s9.4,4.2,9.4,9.4v7      C88.5,122.8,84.3,127,79.1,127z M79.1,105.2c-3,0-5.4,2.4-5.4,5.4v7c0,3,2.4,5.4,5.4,5.4s5.4-2.4,5.4-5.4v-7      C84.5,107.7,82.1,105.2,79.1,105.2z" fill="#171C1F"/></g></g><g><g><path d="M48.9,103.2L48.9,103.2c-4.1,0-7.4,3.3-7.4,7.4v7c0,4.1,3.3,7.4,7.4,7.4h0c4.1,0,7.4-3.3,7.4-7.4v-7      C56.3,106.5,53,103.2,48.9,103.2z" fill="#485762"/></g><g><path d="M48.9,127c-5.2,0-9.4-4.2-9.4-9.4v-7c0-5.2,4.2-9.4,9.4-9.4c5.2,0,9.4,4.2,9.4,9.4v7      C58.3,122.8,54.1,127,48.9,127z M48.9,105.2c-3,0-5.4,2.4-5.4,5.4v7c0,3,2.4,5.4,5.4,5.4s5.4-2.4,5.4-5.4v-7      C54.3,107.7,51.9,105.2,48.9,105.2z" fill="#171C1F"/></g></g></g><g><g><rect fill="#485762" height="19.6" width="65.2" x="31.4" y="3"/></g><g><path d="M96.6,24.6H31.4c-1.1,0-2-0.9-2-2V3c0-1.1,0.9-2,2-2h65.2c1.1,0,2,0.9,2,2v19.6     C98.6,23.7,97.7,24.6,96.6,24.6z M33.4,20.6h61.2V5H33.4V20.6z" fill="#171C1F"/></g></g><g opacity="0.2"><rect fill="#FFFFFF" height="4" width="69.2" x="29.4" y="4"/></g><g><path d="M122.7,1H5.3c-1.1,0-2,0.9-2,2s0.9,2,2,2h117.4c1.1,0,2-0.9,2-2S123.8,1,122.7,1z" fill="#171C1F"/></g><g><path d="M100.8,12.2C88,25.8,76.4,12.9,68.1,18c-1.5,0.4-2.8,1.3-4.1,2.5c-1.3-1.3-2.6-2.2-4.1-2.5    c-8.4-5.1-20,7.7-32.8-5.8c0,0,0,0,0,0c0,0,0,0,0,0c0,8.6,5.2,28.5,13.6,30.6c4.1,2.5,8.9,0.7,14.3-0.2c-0.4,2.3-0.6,4.4-0.6,6    c0,0,0,0,0,0c0,0,0,0,0,0c3.3-3.5,6.4-5.2,9.5-6c3.1,0.8,6.3,2.5,9.5,6c0,0,0,0,0,0c0,0,0,0,0,0c0-1.7-0.2-3.7-0.6-6    c5.4,0.9,10.2,2.7,14.3,0.2C95.6,40.8,100.8,20.8,100.8,12.2C100.8,12.2,100.8,12.2,100.8,12.2C100.8,12.2,100.8,12.2,100.8,12.2z    " fill="#F27475"/></g><g><path d="M54.5,50.6c-0.2,0-0.5,0-0.7-0.1c-0.8-0.3-1.3-1-1.3-1.9c0-1,0.1-2.2,0.2-3.5c-0.1,0-0.2,0-0.3,0.1    c-2.3,0.5-4.5,0.9-6.7,0.9c-2.2,0-4.1-0.5-5.7-1.4c-9.8-2.8-14.8-23.9-14.8-32.4c0-0.8,0.4-1.5,1.1-1.8c0.7-0.3,1.5-0.2,2.1,0.2    c0.1,0.1,0.2,0.1,0.2,0.2c4.9,5.2,9.4,5.8,12.3,5.8c2.5,0,5-0.5,7.3-1c2.3-0.5,4.5-0.9,6.7-0.9c2.2,0,4.1,0.5,5.7,1.4    c1.1,0.3,2.2,0.9,3.3,1.7c1.1-0.8,2.2-1.4,3.3-1.7c1.7-0.9,3.5-1.4,5.7-1.4c2.2,0,4.4,0.4,6.7,0.9c2.4,0.5,4.8,1,7.3,1    c2.9,0,7.4-0.6,12.3-5.8c0.5-0.6,1.4-0.8,2.2-0.6c0.8,0.3,1.3,1,1.3,1.9c0,8.5-5,29.7-14.8,32.4c-1.7,0.9-3.5,1.4-5.7,1.4    c-2.2,0-4.4-0.4-6.7-0.9c-0.1,0-0.2,0-0.3-0.1c0.1,1.3,0.2,2.5,0.2,3.5c0,0.9-0.6,1.7-1.4,1.9c-0.8,0.2-1.6,0-2.1-0.6    c-2.5-2.7-5.2-4.4-8-5.2c-2.8,0.8-5.5,2.5-8,5.2C55.6,50.4,55,50.6,54.5,50.6z M64,40.7c0.2,0,0.3,0,0.5,0.1    c2.3,0.6,4.5,1.6,6.6,3.1c0-0.3-0.1-0.6-0.1-0.9c-0.1-0.6,0.1-1.3,0.6-1.7s1.1-0.7,1.7-0.6c1.1,0.2,2.1,0.4,3.1,0.6    c2.1,0.4,4.1,0.8,5.9,0.8c1.6,0,2.8-0.3,3.9-1c0.2-0.1,0.4-0.2,0.6-0.2c5.7-1.4,10.3-14.6,11.7-23.9c-3.5,2.5-7.2,3.7-11.4,3.7    c-2.9,0-5.6-0.5-8.1-1.1c-2.1-0.4-4.1-0.8-5.9-0.8c-1.6,0-2.8,0.3-3.9,1c-0.2,0.1-0.4,0.2-0.6,0.2c-1,0.2-2,0.9-3.1,2    c-0.4,0.4-0.9,0.6-1.4,0.6h0c-0.5,0-1.1-0.2-1.4-0.6c-1.1-1.1-2.1-1.7-3.1-2c-0.2,0-0.4-0.1-0.6-0.2c-1.1-0.7-2.3-1-3.9-1    c-1.8,0-3.8,0.4-5.9,0.8c-2.6,0.5-5.2,1.1-8.1,1.1c-4.2,0-7.9-1.2-11.4-3.7c1.3,9.3,5.9,22.5,11.7,23.9c0.2,0,0.4,0.1,0.6,0.2    c1.1,0.7,2.3,1,3.9,1c1.8,0,3.8-0.4,5.9-0.8c1-0.2,2.1-0.4,3.1-0.6c0.6-0.1,1.3,0.1,1.7,0.6c0.5,0.5,0.7,1.1,0.6,1.7    c-0.1,0.3-0.1,0.6-0.1,0.9c2.1-1.5,4.3-2.5,6.6-3.1C63.7,40.7,63.8,40.7,64,40.7z" fill="#171C1F"/></g><g opacity="0.1"><path d="M105.6,63.8c-2-1.3-3.4-3.2-4.2-5.4c-3.1,4.5-8.3,7.5-14.2,7.5c-9.5,0-17.2-7.7-17.2-17.2    c0-9.5,7.7-17.2,17.2-17.2c2.9,0,5.6,0.7,8,2c0.4-2.5,1.7-4.9,3.7-6.6c0-1.6,0.3-3.1,0.8-4.6c-3.8-1.8-8.1-2.8-12.6-2.8    c-9.3,0-17.8,4.3-23.2,11.5c-5.5-7.1-14-11.5-23.2-11.5c-4.5,0-8.8,1-12.7,2.9c1.5,1.8,2.3,4.1,2.5,6.5c1,1.4,1.6,3.1,1.9,4.8    c2.5-1.4,5.3-2.1,8.3-2.1c9.5,0,17.2,7.7,17.2,17.2c0,9.5-7.7,17.2-17.2,17.2c-6.4,0-12-3.5-15-8.8c-0.8,1.4-2,2.7-3.5,3.5    c0.6,2.4,0.4,5-0.4,7.3c0.3,1.1,0.4,2.2,0.4,3.3c5,4.2,11.5,6.7,18.5,6.7c9.3,0,17.8-4.3,23.2-11.5c5.5,7.1,14,11.5,23.2,11.5    c7.2,0,13.7-2.6,18.8-6.9C105.2,68.7,105.1,66.2,105.6,63.8z" fill="#171C1F"/></g><g><g><line fill="#FFFFFF" x1="114.7" x2="114.7" y1="3" y2="14.6"/></g><g><path d="M114.7,16.6c-1.1,0-2-0.9-2-2V3c0-1.1,0.9-2,2-2s2,0.9,2,2v11.6C116.7,15.7,115.8,16.6,114.7,16.6z" fill="#171C1F"/></g></g><g><circle cx="87.2" cy="48.6" fill="#FFFFFF" r="23.2"/></g><g><circle cx="40.8" cy="48.6" fill="#FFFFFF" r="23.2"/></g><g><path d="M87.2,23.4c-10.4,0-19.4,6.4-23.2,15.4c-3.8-9-12.8-15.4-23.2-15.4c-13.9,0-25.2,11.3-25.2,25.2    c0,13.9,11.3,25.2,25.2,25.2c10.4,0,19.4-6.4,23.2-15.4c3.8,9,12.8,15.4,23.2,15.4c13.9,0,25.2-11.3,25.2-25.2    C112.5,34.7,101.2,23.4,87.2,23.4z M40.8,69.9c-11.7,0-21.2-9.5-21.2-21.2c0-11.7,9.5-21.2,21.2-21.2S62,36.9,62,48.6    C62,60.3,52.5,69.9,40.8,69.9z M87.2,69.9C75.5,69.9,66,60.3,66,48.6c0-11.7,9.5-21.2,21.2-21.2c11.7,0,21.2,9.5,21.2,21.2    C108.5,60.3,99,69.9,87.2,69.9z" fill="#171C1F"/></g><g><g><g><circle cx="87.2" cy="48.6" fill="#74C9F1" r="15.6"/></g></g><g><g><circle cx="87.2" cy="48.6" fill="#485762" r="8.1"/></g></g><g><g><circle cx="81.7" cy="43.2" fill="#FFFBF9" r="3.6"/></g></g></g><g><g><g><circle cx="40.8" cy="48.6" fill="#74C9F1" r="15.6"/></g></g><g><g><circle cx="40.8" cy="48.6" fill="#485762" r="8.1"/></g></g><g><g><circle cx="35.3" cy="43.2" fill="#FFFBF9" r="3.6"/></g></g></g><g><g><line fill="#FFFFFF" x1="114.7" x2="114.7" y1="21" y2="25.3"/></g><g><path d="M114.7,27.3c-1.1,0-2-0.9-2-2V21c0-1.1,0.9-2,2-2s2,0.9,2,2v4.2C116.7,26.4,115.8,27.3,114.7,27.3z" fill="#171C1F"/></g></g><g opacity="0.1"><g><path d="M44.1,83.4h2.2c0.6,0,1-0.4,1-1s-0.4-1-1-1h-2.2c-0.6,0-1,0.4-1,1S43.6,83.4,44.1,83.4z" fill="#171C1F"/></g><g><path d="M54.2,81h2.2c0.6,0,1-0.4,1-1s-0.4-1-1-1h-2.2c-0.6,0-1,0.4-1,1S53.7,81,54.2,81z" fill="#171C1F"/></g><g><path d="M49.4,83.4h1.2c0.6,0,1-0.4,1-1s-0.4-1-1-1h-1.2c-0.6,0-1,0.4-1,1S48.9,83.4,49.4,83.4z" fill="#171C1F"/></g><g><path d="M58.5,101h-1.2c-0.6,0-1,0.4-1,1s0.4,1,1,1h1.2c0.6,0,1-0.4,1-1S59,101,58.5,101z" fill="#171C1F"/></g><g><path d="M72.3,101H71c-0.6,0-1,0.4-1,1s0.4,1,1,1h1.2c0.6,0,1-0.4,1-1S72.8,101,72.3,101z" fill="#171C1F"/></g><g><path d="M44.1,87.4h-1.2c-0.6,0-1,0.4-1,1s0.4,1,1,1h1.2c0.6,0,1-0.4,1-1S44.7,87.4,44.1,87.4z" fill="#171C1F"/></g><g><path d="M53.6,85.2h-4.1c-0.6,0-1,0.4-1,1s0.4,1,1,1h4.1c0.6,0,1-0.4,1-1S54.1,85.2,53.6,85.2z" fill="#171C1F"/></g><g><path d="M58.3,91.1h2.1c0.6,0,1-0.4,1-1s-0.4-1-1-1h-2.1c-0.6,0-1,0.4-1,1S57.8,91.1,58.3,91.1z" fill="#171C1F"/></g><g><path d="M62.9,87.8h3.7c0.6,0,1-0.4,1-1s-0.4-1-1-1h-3.7c-0.6,0-1,0.4-1,1S62.4,87.8,62.9,87.8z" fill="#171C1F"/></g><g><path d="M73.5,88.1h-3.7c-0.6,0-1,0.4-1,1s0.4,1,1,1h3.7c0.6,0,1-0.4,1-1S74.1,88.1,73.5,88.1z" fill="#171C1F"/></g><g><path d="M64.4,94.4c0,0.6,0.4,1,1,1h3.2c0.6,0,1-0.4,1-1s-0.4-1-1-1h-3.2C64.9,93.4,64.4,93.8,64.4,94.4z" fill="#171C1F"/></g><g><path d="M61.4,97c0-0.6-0.4-1-1-1h-5.1c-0.6,0-1,0.4-1,1s0.4,1,1,1h5.1C61,98,61.4,97.6,61.4,97z" fill="#171C1F"/></g><g><path d="M48.9,96.7h-2.8c-0.6,0-1,0.4-1,1s0.4,1,1,1h2.8c0.6,0,1-0.4,1-1S49.5,96.7,48.9,96.7z" fill="#171C1F"/></g><g><path d="M80.9,93.4h-3.7c-0.6,0-1,0.4-1,1s0.4,1,1,1h3.7c0.6,0,1-0.4,1-1S81.5,93.4,80.9,93.4z" fill="#171C1F"/></g><g><path d="M84.6,89.1h-3.7c-0.6,0-1,0.4-1,1s0.4,1,1,1h3.7c0.6,0,1-0.4,1-1S85.2,89.1,84.6,89.1z" fill="#171C1F"/></g><g><path d="M72.7,97.4h-5.4c-0.6,0-1,0.4-1,1s0.4,1,1,1h5.4c0.6,0,1-0.4,1-1S73.2,97.4,72.7,97.4z" fill="#171C1F"/></g><g><path d="M62.4,104.2h3.4c0.6,0,1-0.4,1-1s-0.4-1-1-1h-3.4c-0.6,0-1,0.4-1,1S61.9,104.2,62.4,104.2z" fill="#171C1F"/></g><g><path d="M63.9,107.5c0-0.6-0.4-1-1-1h-2.5c-0.6,0-1,0.4-1,1s0.4,1,1,1h2.5C63.5,108.5,63.9,108,63.9,107.5z" fill="#171C1F"/></g><g><path d="M66.7,109.5h-2.5c-0.6,0-1,0.4-1,1s0.4,1,1,1h2.5c0.6,0,1-0.4,1-1S67.2,109.5,66.7,109.5z" fill="#171C1F"/></g><g><path d="M76.7,82.4c0-0.6-0.4-1-1-1H72c-0.6,0-1,0.4-1,1s0.4,1,1,1h3.7C76.3,83.4,76.7,82.9,76.7,82.4z" fill="#171C1F"/></g><g><path d="M79.4,83.4h1.9c0.6,0,1-0.4,1-1s-0.4-1-1-1h-1.9c-0.6,0-1,0.4-1,1S78.9,83.4,79.4,83.4z" fill="#171C1F"/></g><g><path d="M72.6,79.3h1.9c0.6,0,1-0.4,1-1s-0.4-1-1-1h-1.9c-0.6,0-1,0.4-1,1S72,79.3,72.6,79.3z" fill="#171C1F"/></g><g><path d="M78.1,87.2H80c0.6,0,1-0.4,1-1s-0.4-1-1-1h-1.9c-0.6,0-1,0.4-1,1S77.6,87.2,78.1,87.2z" fill="#171C1F"/></g><g><path d="M86.4,84.2h-1.9c-0.6,0-1,0.4-1,1s0.4,1,1,1h1.9c0.6,0,1-0.4,1-1S87,84.2,86.4,84.2z" fill="#171C1F"/></g><g><path d="M52.1,89.6H48c-0.6,0-1,0.4-1,1s0.4,1,1,1h4.1c0.6,0,1-0.4,1-1S52.7,89.6,52.1,89.6z" fill="#171C1F"/></g></g></g></svg>